# xmcd CD database file
#
# Track frame offsets:
#	150
#	17175
#	39957
#	56930
#
# Disc length: 1058 seconds
#
# Revision: 0
# Processed by: cddbd v1.5.1PL0 Copyright (c) Steve Scherf et al.
# Submitted via: CDex 1.51
#
DISCID=2e042004
DTITLE=infix - Imaginary Girl
DYEAR=1999
DGENRE=Rock
TTITLE0=Imaginary Girl
TTITLE1=Julia
TTITLE2=Imaginary Girl 〜JYOSEI less version〜
TTITLE3=Julia 〜JYOSEI less version〜
EXTD=YEAR: 1999
EXTT0=
EXTT1=
EXTT2=
EXTT3=
PLAYORDER=
